<?xml version="1.0" encoding="UTF-8" standalone="no"?>
<!-- Created with Inkscape (http://www.inkscape.org/) -->

<svg
   xmlns:dc="http://purl.org/dc/elements/1.1/"
   xmlns:cc="http://creativecommons.org/ns#"
   xmlns:rdf="http://www.w3.org/1999/02/22-rdf-syntax-ns#"
   xmlns:svg="http://www.w3.org/2000/svg"
   xmlns="http://www.w3.org/2000/svg"
   xmlns:sodipodi="http://sodipodi.sourceforge.net/DTD/sodipodi-0.dtd"
   xmlns:inkscape="http://www.inkscape.org/namespaces/inkscape"
   width="468px"
   height="60px"
   id="svg3251"
   version="1.1"
   inkscape:version="0.48.4 r9939"
   sodipodi:docname="cestki.svg"
   inkscape:export-filename="/var/www/images/cestki.png"
   inkscape:export-xdpi="63"
   inkscape:export-ydpi="63">
  <sodipodi:namedview
     id="base"
     pagecolor="#ffffff"
     bordercolor="#666666"
     borderopacity="1.0"
     inkscape:pageopacity="0.0"
     inkscape:pageshadow="2"
     inkscape:zoom="1.9292008"
     inkscape:cx="237.08041"
     inkscape:cy="39.085949"
     inkscape:document-units="px"
     inkscape:current-layer="layer1"
     showgrid="false"
     inkscape:window-width="1319"
     inkscape:window-height="744"
     inkscape:window-x="47"
     inkscape:window-y="24"
     inkscape:window-maximized="1"
     showguides="true"
     inkscape:guide-bbox="true" />
  <script
     type="text/javascript"
     id="inkwebjs">
/* inkweb.js - InkWebEffect:AutoUpdate */
/*
**  InkWeb - Inkscape's Javscript features for the open vector web
**
**  Copyright (C) 2009 Aurelio A. Heckert, aurium (a) gmail dot com
**
**  ********* Bugs and New Fetures *************************************
**   If you found any bug on this script or if you want to propose a
**   new feature, please report it in the inkscape bug traker
**   https://bugs.launchpad.net/inkscape/+filebug
**   and assign that to Aurium.
**  ********************************************************************
**
**  This program is free software: you can redistribute it and/or modify
**  it under the terms of the GNU Lesser General Public License as published
**  by the Free Software Foundation, either version 3 of the License, or
**  (at your option) any later version.
**
**  This program is distributed in the hope that it will be useful,
**  but WITHOUT ANY WARRANTY; without even the implied warranty of
**  MERCHANTABILITY or FITNESS FOR A PARTICULAR PURPOSE.  See the
**  GNU Lesser General Public License for more details.
**
**  You should have received a copy of the GNU Lesser General Public License
**  along with this program.  If not, see &lt;http://www.gnu.org/licenses/&gt;.
*/

var InkWeb = {

  version: 0.04,

  NS: {
    svg:      &quot;http://www.w3.org/2000/svg&quot;,
    sodipodi: &quot;http://sodipodi.sourceforge.net/DTD/sodipodi-0.dtd&quot;,
    inkscape: &quot;http://www.inkscape.org/namespaces/inkscape&quot;,
    cc:       &quot;http://creativecommons.org/ns#&quot;,
    dc:       &quot;http://purl.org/dc/elements/1.1/&quot;,
    rdf:      &quot;http://www.w3.org/1999/02/22-rdf-syntax-ns#&quot;,
    xlink:    &quot;http://www.w3.org/1999/xlink&quot;,
    xml:      &quot;http://www.w3.org/XML/1998/namespace&quot;
  }

};

InkWeb.el = function (tag, attributes) {
  // A helper to create SVG elements
  var element = document.createElementNS( this.NS.svg, tag );
  for ( var att in attributes ) {
    switch ( att ) {
      case &quot;parent&quot;:
        attributes.parent.appendChild( element );
        break;
      case &quot;text&quot;:
        element.appendChild( document.createTextNode( attributes.text ) );
        break;
      default:
        element.setAttribute( att, attributes[att] );
    }
  }
  return element;
}

InkWeb.reGetStyleAttVal = function (att) {
  return new RegExp( &quot;(^|.*;)[ ]*&quot;+ att +&quot;:([^;]*)(;.*|$)&quot; )
}

InkWeb.getStyle = function (el, att) {
  // This method is needed because el.style is only working
  // to HTML style in the Firefox 3.0
  if ( typeof(el) == &quot;string&quot; )
    el = document.getElementById(el);
  var style = el.getAttribute(&quot;style&quot;);
  var match = this.reGetStyleAttVal(att).exec(style);
  if ( match ) {
    return match[2];
  } else {
    return false;
  }
}

InkWeb.setStyle = function (el, att, val) {
  if ( typeof(el) == &quot;string&quot; )
    el = document.getElementById(el);
  var style = el.getAttribute(&quot;style&quot;);
  re = this.reGetStyleAttVal(att);
  if ( re.test(style) ) {
    style = style.replace( re, &quot;$1&quot;+ att +&quot;:&quot;+ val +&quot;$3&quot; );
  } else {
    style += &quot;;&quot;+ att +&quot;:&quot;+ val;
  }
  el.setAttribute( &quot;style&quot;, style );
  return val
}

InkWeb.transmitAtt = function (conf) {
  conf.att = conf.att.split( /\s+/ );
  if ( typeof(conf.from) == &quot;string&quot; )
    conf.from = document.getElementById( conf.from );
  if ( ! conf.to.join )
    conf.to = [ conf.to ];
  for ( var toEl,elN=0; toEl=conf.to[elN]; elN++ ) {
    if ( typeof(toEl) == &quot;string&quot; )
      toEl = document.getElementById( toEl );
    for ( var i=0; i&lt;conf.att.length; i++ ) {
      var val = this.getStyle( conf.from, conf.att[i] );
      if ( val ) {
        this.setStyle( toEl, conf.att[i], val );
      } else {
        val = conf.from.getAttribute(conf.att[i]);
        toEl.setAttribute( conf.att[i], val );
      }
    }
  }
}

InkWeb.setAtt = function (conf) {
  if ( ! conf.el.join )
    conf.to = [ conf.el ];
  conf.att = conf.att.split( /\s+/ );
  conf.val = conf.val.split( /\s+/ );
  for ( var el,elN=0; el=conf.el[elN]; elN++ ) {
    if ( typeof(el) == &quot;string&quot; )
      el = document.getElementById( el );
    for ( var att,i=0; att=conf.att[i]; i++ ) {
      if (
           att == &quot;width&quot;  ||
           att == &quot;height&quot; ||
           att == &quot;x&quot;  ||
           att == &quot;y&quot;  ||
           att == &quot;cx&quot; ||
           att == &quot;cy&quot; ||
           att == &quot;r&quot;  ||
           att == &quot;rx&quot; ||
           att == &quot;ry&quot; ||
           att == &quot;transform&quot;
         ) {
        el.setAttribute( att, conf.val[i] );
      } else {
        this.setStyle( el, att, conf.val[i] );
      }
    }
  }
}

InkWeb.moveElTo = function (startConf) {
  if ( typeof(startConf) == &quot;string&quot; ) {
    // startConf may be only a element Id, to timeout recursive calls.
    var el = document.getElementById( startConf );
  } else {
    if ( typeof(startConf.el) == &quot;string&quot; )
      startConf.el = document.getElementById( startConf.el );
    var el = startConf.el;
  }
  if ( ! el.inkWebMoving ) {
    el.inkWebMoving = {
      step: 0
    };
  }
  var conf = el.inkWebMoving;
  if ( conf.step == 0 ) {
    conf.x = startConf.x;
    conf.y = startConf.y;
    // dur : duration of the animation in seconds
    if ( startConf.dur ) { conf.dur = startConf.dur }
    else { conf.dur = 1 }
    // steps : animation steps in a second
    if ( startConf.stepsBySec ) { conf.stepsBySec = startConf.stepsBySec }
    else { conf.stepsBySec = 16 }
    conf.sleep = Math.round( 1000 / conf.stepsBySec );
    conf.steps = conf.dur * conf.stepsBySec;
    var startPos = el.getBBox();
    conf.xInc = ( conf.x - startPos.x ) / conf.steps;
    conf.yInc = ( conf.y - startPos.y ) / conf.steps;
    conf.transform = el.transform.baseVal.consolidate();
    if ( ! conf.transform ) {
      conf.transform = el.ownerSVGElement.createSVGTransform();
    }
    el.transform.baseVal.clear();
    el.transform.baseVal.appendItem(conf.transform);
  }
  if ( conf.step &lt; conf.steps ) {
    conf.step++;
    conf.transform.matrix.e += conf.xInc;
    conf.transform.matrix.f += conf.yInc;
    try{ el.ownerSVGElement.forceRedraw() }
    catch(e){ this.log(e, &quot;this &quot;+el.ownerSVGElement+&quot; has no forceRedraw().&quot;) }
    conf.timeout = setTimeout( 'InkWeb.moveElTo(&quot;'+el.id+'&quot;)', conf.sleep );
  } else {
    delete el.inkWebMoving;
  }
}

InkWeb.log = function () { /* if you need that, use the inkweb-debug.js too */ }
</script>
  <defs
     id="defs3253" />
  <metadata
     id="metadata3256">
    <rdf:RDF>
      <cc:Work
         rdf:about="">
        <dc:format>image/svg+xml</dc:format>
        <dc:type
           rdf:resource="http://purl.org/dc/dcmitype/StillImage" />
        <dc:title />
      </cc:Work>
    </rdf:RDF>
  </metadata>
  <g
     inkscape:groupmode="layer"
     inkscape:label="Layer 1"
     id="layer1">
    <path
       onclick=";
InkWeb.transmitAtt({from:this, to:['path3798-0-16-5-0-4-2-7-5-5'], att:'fill'})"
       inkscape:export-ydpi="63.971859"
       inkscape:export-xdpi="63.971859"
       inkscape:export-filename="/var/www/images/cestki1080.png"
       sodipodi:nodetypes="csssssssssssssssssssssssccssssssssssssssssssssscc"
       inkscape:connector-curvature="0"
       id="path3776"
       d="m 14.241984,46.528507 c 8.017552,0 8.056579,0.03415 10.31581,0.765814 2.69484,0.872743 3.688036,3.828915 6.368163,3.828915 8.97621,0 12.180868,0.452615 12.180868,-0.497974 0,-3.600432 3.586466,-4.096755 13.915505,-4.096755 12.703098,0 14.858775,0.420684 14.858775,4.977626 0,0.742598 4.316155,0.188677 15.651998,0.188677 0.323912,0 0.08064,-4.922117 1.886192,-6.723568 1.721361,-1.717454 1.272104,-1.532128 15.605285,-1.700052 5.71313,-0.06693 7.64994,0.0017 7.64994,2.582387 0,8.718632 0.089,8.918227 1.47542,8.918227 76.13102,0 78.7879,0.0112 195.12952,0.0112 9.74734,0 10.57787,-2.518719 13.75037,-5.744822 1.51104,-1.536571 3.83156,-1.743867 12.73183,-1.743867 9.42913,0 9.93916,-0.01802 17.20877,0 2.41861,0.0059 2.58611,0.294049 3.28403,1.523317 0.86897,1.530545 1.58824,2.305599 5.30338,2.305599 7.18622,0 -1.64682,-3.747544 10.38413,-3.828916 5.38173,-0.03643 5.5725,-0.165238 5.5725,-8.40771 0,-0.969551 0.65672,-1.621184 2.4749,-2.210057 7.52793,-2.437994 5.56948,-34.3782545 7.15768,-34.3782545 1.46115,0 0.39124,31.8389865 7.15664,34.3733795 2.0264,0.759119 2.33537,0.850632 2.33537,1.85763 0,8.612125 0.12732,8.765012 6.0354,8.765012 31.63703,0 31.82411,0 54.77654,0 0,3.821074 -0.18679,3.828916 -12.49742,3.828916 -24.0322,0 -23.19307,0 -48.98223,0 -2.45586,0 -2.68,-0.01625 -3.21316,-0.716108 -0.82706,-1.085665 -1.20927,-3.112808 -5.61114,-3.112808 -4.90295,0 -4.88193,3.536199 -4.88193,5.960089 0,1.548281 -0.18749,1.697755 -4.20308,1.697755 -9.35129,0 -10.05098,0.01262 -16.76509,0.01262 -4.30937,0 -5.84597,-0.656318 -6.53627,-1.358297 -2.48567,-2.52765 -3.54702,-2.481056 -6.5507,-2.483243 -5.85351,-0.0042 -8.49506,-0.191672 -15.36684,-0.191672 -6.95931,0 -8.26882,3.536019 -10.68795,5.996025 -1.17874,1.198653 -2.93637,1.853489 -7.963,1.853489 -74.33237,0 -72.72003,0.01922 -186.63297,0 -17.50369,-0.0029 -19.17446,-0.137396 -19.17446,-1.950796 0,-7.229007 2.01567,-10.301775 -8.435202,-10.301775 -6.120195,0 -6.31418,-0.06047 -7.78224,1.432407 -1.087511,1.105894 -0.861716,5.703476 -1.698779,6.554682 -1.000924,1.017844 -1.373063,0.81945 -8.774669,0.81945 -14.298466,0 -14.997843,-0.153726 -14.997843,-1.35467 0,-3.576084 -0.522006,-3.622919 -9.451272,-3.622919 -8.845403,0 -9.010734,-0.03416 -9.010734,3.446036 0,1.245515 -4.851787,1.148671 -17.308064,1.148671 -9.208097,0 -7.927806,-4.97762 -17.120157,-4.97762 4.73158,-2.654156 4.652694,-1.080795 0.436184,-3.446037 z"
       style="fill:#ffd800;fill-opacity:1;stroke:#ffffff;stroke-width:0.92949057;stroke-linecap:butt;stroke-linejoin:miter;stroke-miterlimit:4;stroke-opacity:1;stroke-dasharray:none" />
    <path
       onclick=";
InkWeb.transmitAtt({from:this, to:['path3798-0-16-5-0-4-2-7-5-5'], att:'fill'})"
       inkscape:export-ydpi="63.971859"
       inkscape:export-xdpi="63.971859"
       inkscape:export-filename="/var/www/images/cestki1080.png"
       sodipodi:nodetypes="csssccccsssssssssssscscsssssssasssscssccsc"
       inkscape:connector-curvature="0"
       id="path3780"
       d="m 54.611842,7.3473532 c 0.533832,-3.6315888 0.586468,-3.8482774 1.701448,-3.8454578 1.824595,0.00463 1.849533,0.033871 2.022586,3.8128713 0,0 -0.516901,7.0518703 5.274561,3.9688633 1.728741,-0.920272 -3.310768,-5.0230941 -1.233169,-4.3383671 0,0 -0.377268,-0.4419244 0.654512,0.448798 m 0.0051,0 c 0,0 -0.640981,-1.743023 1.805389,-1.6455891 0.256392,1.6476735 2.466333,1.6455891 2.466333,5.5351582 0,1.51505 -3.846654,3.197676 -7.398954,3.197676 -2.468734,0 4.73297,0.371123 4.73297,3.427138 0,2.646165 -4.109324,2.085423 -4.144634,3.476023 -0.04073,1.604024 4.052771,1.810213 4.052771,3.622026 0,2.065624 -5.291292,1.761341 -5.291292,3.741159 0,1.070107 5.37612,1.034596 5.37612,3.12556 0,1.453096 -4.300831,1.247498 -4.300831,1.993585 0,0.698704 1.02239,1.291519 1.822096,2.091224 1.419999,1.420001 2.095304,3.545396 2.095304,5.055666 0,2.790882 -2.473621,3.24075 -2.473621,1.400896 0,-2.947501 -3.807807,-8.600644 -3.974447,-7.978743 -0.452499,1.688757 -0.142511,4.392038 -0.142511,4.392038 1.912463,5.227539 1.700354,5.26101 -0.77524,5.291565 -2.5145,0.03103 -2.827576,0.23656 -1.514921,-5.107839 0,0 0.330421,-2.871488 -0.0833,-4.41555 -0.249829,-0.932378 -2.793494,3.932514 -2.793494,6.079882 0,2.317231 -2.794511,3.66977 -2.794511,0.193811 0,-1.678086 0.140323,-2.509597 1.196755,-4.339388 0.554349,-0.960163 1.964358,-2.085136 1.964358,-2.721707 0,-0.910347 -4.423848,-0.527491 -4.423848,-1.93544 0,-2.198879 5.127395,-2.076836 5.127395,-3.125617 0,-1.961456 -5.201661,-1.601283 -5.216864,-3.741102 -0.0148,-2.083222 5.110155,-2.345091 5.026624,-3.713947 -0.08074,-1.323225 -4.877244,-0.954454 -4.842899,-3.384159 0.04108,-2.905722 8.137863,-3.427141 5.21223,-3.427141 -3.0982,0 -8.61688,-1.682624 -8.61688,-3.197674 0,-3.889574 3.681432,-3.889574 4.933848,-5.5351571 2.471986,0 1.219114,1.6455831 1.219114,1.6455831 1.780074,-0.650638 -3.306907,3.527653 -2.47153,3.889574 5.410129,2.3439 5.631661,-0.550602 5.80222,-3.9362899 m 0,0 c 2.4e-5,-1.36e-5 -5.7e-5,-1.36e-5 -7.9e-5,-1.09e-5 l -9e-6,2.46e-5"
       style="fill:#ffd800;fill-opacity:1;stroke:#ffffff;stroke-width:0.67322522;stroke-linecap:round;stroke-linejoin:miter;stroke-miterlimit:4;stroke-opacity:1;stroke-dasharray:none" />
    <path
       onclick=";
InkWeb.transmitAtt({from:this, to:['path3798-0-16-5-0-4-2-7-5-5'], att:'fill'})"
       inkscape:export-ydpi="63.971859"
       inkscape:export-xdpi="63.971859"
       inkscape:export-filename="/var/www/images/cestki1080.png"
       sodipodi:nodetypes="sccccszzcsscss"
       inkscape:connector-curvature="0"
       id="path3006"
       d="m 335.80203,42.683617 c -7.84279,-7.438582 -8.97102,-20.721178 -5.25657,-27.198103 -7.98174,-3.730005 -10.56412,-4.51401 -15.36369,-11.784988 1.9642,-0.5996472 2.91726,-0.5767969 4.24732,-0.2369033 5.45111,1.392997 8.12444,6.8116903 13.44581,8.5312463 2.39018,-3.0057235 3.83992,-4.3773396 6.34223,-5.3618052 1.81165,-0.7127519 5.19276,-1.6584589 6.09403,-0.713071 0.90135,0.9453844 -0.22703,3.1480377 -1.54973,4.7092402 -1.32275,1.561193 -1.83416,2.247718 -5.29943,3.897985 4.65092,2.060949 4.8164,1.560063 20.7311,7.874343 3.70161,1.468633 -0.37946,4.751784 -5.28259,2.844218 -10.79142,-4.198428 -11.39004,-4.157341 -18.93812,-7.965628 -0.88826,1.663896 -2.18904,15.843955 4.17153,23.351242 2.92462,3.451841 0.32205,5.527329 -3.34189,2.052224 z"
       style="fill:#ffd800;fill-opacity:1;stroke:#ffffff;stroke-width:0.47581214;stroke-linecap:butt;stroke-linejoin:miter;stroke-miterlimit:4;stroke-opacity:1;stroke-dasharray:none" />
    <path
       onclick=";
InkWeb.transmitAtt({from:this, to:['path3798-0-16-5-0-4-2-7-5-5'], att:'fill'})"
       inkscape:export-ydpi="63.971859"
       inkscape:export-xdpi="63.971859"
       inkscape:export-filename="/var/www/images/cestki1080.png"
       sodipodi:nodetypes="ccc"
       inkscape:connector-curvature="0"
       id="path3798-0-16-5"
       d="m 55.423259,16.737118 c -5.159372,0 -5.192751,2.273605 -0.03348,2.273605 0.0049,-0.586432 0.04862,-1.621796 0.03348,-2.273605 z"
       style="fill:#ffffff;fill-opacity:1;stroke:#ffffff;stroke-width:0.33994368;stroke-linecap:butt;stroke-linejoin:miter;stroke-miterlimit:4;stroke-opacity:1;stroke-dasharray:none" />
    <path
       onclick=";
InkWeb.transmitAtt({from:this, to:['path3798-0-16-5-0-4-2-7-5-5'], att:'fill'})"
       inkscape:export-ydpi="63.971859"
       inkscape:export-xdpi="63.971859"
       inkscape:export-filename="/var/www/images/cestki1080.png"
       sodipodi:nodetypes="ccc"
       inkscape:connector-curvature="0"
       id="path3798-0-16-5-91"
       d="m 58.167741,19.14321 c 4.731841,0 4.731841,-2.406092 0,-2.406092 -0.0048,0.586432 -0.01516,1.754283 0,2.406092 z"
       style="fill:#ffffff;fill-opacity:1;stroke:#ffffff;stroke-width:0.33994368;stroke-linecap:butt;stroke-linejoin:miter;stroke-miterlimit:4;stroke-opacity:1;stroke-dasharray:none" />
    <path
       onclick=";
InkWeb.transmitAtt({from:this, to:['path3798-0-16-5-0-4-2-7-5-5'], att:'fill'})"
       inkscape:export-ydpi="63.971859"
       inkscape:export-xdpi="63.971859"
       inkscape:export-filename="/var/www/images/cestki1080.png"
       sodipodi:nodetypes="ccc"
       inkscape:connector-curvature="0"
       id="path3798-0-16-5-3-5-6"
       d="m 55.068631,23.759098 c -5.216383,0 -5.227555,2.074955 0,2.074955 0,-1.201035 0,-0.876276 0,-2.074955 z"
       style="fill:#ffffff;fill-opacity:1;stroke:#ffffff;stroke-width:0.33994368;stroke-linecap:butt;stroke-linejoin:miter;stroke-miterlimit:4;stroke-opacity:1;stroke-dasharray:none" />
    <path
       onclick=";
InkWeb.transmitAtt({from:this, to:['path3798-0-16-5-0-4-2-7-5-5'], att:'fill'})"
       inkscape:export-ydpi="63.971859"
       inkscape:export-xdpi="63.971859"
       inkscape:export-filename="/var/www/images/cestki1080.png"
       sodipodi:nodetypes="ccc"
       inkscape:connector-curvature="0"
       id="path3798-0-16-5-3-5-6-5"
       d="m 57.616008,25.903949 c 5.216388,0 5.227559,-2.074957 0,-2.074957 0,1.201036 0,0.876276 0,2.074957 z"
       style="fill:#ffffff;fill-opacity:1;stroke:#ffffff;stroke-width:0.33994368;stroke-linecap:butt;stroke-linejoin:miter;stroke-miterlimit:4;stroke-opacity:1;stroke-dasharray:none" />
    <text
       onclick=";
InkWeb.transmitAtt({from:this, to:['path3798-0-16-5-0-4-2-7-5-5'], att:'fill'})"
       inkscape:export-ydpi="63"
       inkscape:export-xdpi="63"
       inkscape:export-filename="/var/www/images/cestki1080.png"
       transform="scale(1.1411048,0.87634369)"
       sodipodi:linespacing="125%"
       id="text3224"
       y="56.276833"
       x="121.83639"
       style="font-size:60.76174164px;font-style:normal;font-weight:normal;line-height:125%;letter-spacing:0px;word-spacing:0px;fill:#000000;fill-opacity:1;stroke:none;font-family:Sans"
       xml:space="preserve"><tspan
         y="56.276833"
         x="121.83639"
         id="tspan3226"
         sodipodi:role="line">C</tspan></text>
    <text
       onclick=";
InkWeb.transmitAtt({from:this, to:['path3798-0-16-5-0-4-2-7-5-5'], att:'fill'})"
       inkscape:export-ydpi="63"
       inkscape:export-xdpi="63"
       inkscape:export-filename="/var/www/images/cestki1080.png"
       transform="scale(1.0271837,0.9735357)"
       sodipodi:linespacing="125%"
       id="text3228"
       y="41.779255"
       x="150.86183"
       style="font-size:30.67674637px;font-style:normal;font-weight:normal;line-height:125%;letter-spacing:0px;word-spacing:0px;fill:#000000;fill-opacity:1;stroke:none;font-family:Sans"
       xml:space="preserve"><tspan
         y="41.779255"
         x="150.86183"
         id="tspan3230"
         sodipodi:role="line">き</tspan></text>
    <path
       onclick=";
InkWeb.transmitAtt({from:this, to:['path3798-0-16-5-0-4-2-7-5-5'], att:'fill'})"
       inkscape:export-ydpi="63"
       inkscape:export-xdpi="63"
       inkscape:export-filename="/var/www/images/cestki1080.png"
       sodipodi:nodetypes="szsss"
       inkscape:connector-curvature="0"
       id="path2988"
       d="m 226.19249,11.915634 c 6.50952,1.545086 5.82429,1.434471 7.73799,1.724878 1.91368,0.290415 6.57141,-1.52967 0.0624,-2.638045 -3.07854,-0.524228 -6.15711,-1.0484575 -9.23567,-1.5726814 -4.78546,-0.8148893 -3.77743,1.2485804 1.43527,2.4858484 z"
       style="fill:#000000;stroke:#000000;stroke-width:0.02785004px;stroke-linecap:butt;stroke-linejoin:miter;stroke-opacity:1" />
    <path
       onclick=";
InkWeb.transmitAtt({from:this, to:['path3798-0-16-5-0-4-2-7-5-5'], att:'fill'})"
       inkscape:export-ydpi="63"
       inkscape:export-xdpi="63"
       inkscape:export-filename="/var/www/images/cestki1080.png"
       sodipodi:nodetypes="scssssss"
       inkscape:connector-curvature="0"
       id="path2990"
       d="m 217.31885,17.957335 c -2.60928,2.389761 1.08321,2.922995 3.7616,3.743068 5.11865,0.932459 8.46348,1.258366 11.95898,1.130247 1.75558,-0.06434 2.1568,-0.430895 3.33548,-1.239056 1.79595,-1.231362 1.3585,-2.708286 -2.45466,-1.203446 -2.56146,1.010859 -7.41518,0.31786 -11.0208,-0.217741 -1.39583,-0.207348 -3.79695,-0.755386 -2.39057,-2.036889 2.80329,-2.554317 -0.27509,-2.845848 -3.19003,-0.176183 z"
       style="fill:#000000;stroke:#000000;stroke-width:0.00900962px;stroke-linecap:butt;stroke-linejoin:miter;stroke-opacity:1" />
    <path
       onclick=";
InkWeb.transmitAtt({from:this, to:['path3798-0-16-5-0-4-2-7-5-5'], att:'fill'})"
       inkscape:export-ydpi="63"
       inkscape:export-xdpi="63"
       inkscape:export-filename="/var/www/images/cestki1080.png"
       sodipodi:nodetypes="zaaaaaaazsaaaasaz"
       inkscape:connector-curvature="0"
       id="path2992"
       d="m 252.50928,10.568811 c -2.55556,1.63262 -8.6254,2.691778 -8.90146,5.827419 -0.0624,0.709135 0.93408,1.725097 1.76074,1.548544 0.99591,-0.212711 0.0881,-1.85416 0.78254,-2.485821 1.40378,-1.276797 4.00326,-2.51477 5.8691,-1.7523 0.66194,0.270496 0.65466,1.138529 0.68473,1.7523 0.0546,1.115995 -1.06409,2.148826 -0.92926,3.260093 0.10134,0.834424 0.50502,1.73858 1.27164,2.282059 1.14785,0.813748 3.45327,1.296213 4.3529,1.018779 0.89969,-0.277432 1.07058,-0.262905 0.68475,-0.855773 -0.78983,-1.213665 -3.03521,-0.790621 -3.57036,-1.874553 -0.79592,-1.611992 1.8438,-3.387253 1.41834,-5.093891 -0.22279,-0.893766 -2.03462,-1.290053 -1.95637,-2.200562 0.12477,-1.450969 2.17466,-2.3719037 3.68556,-3.1008375 2.35955,-1.1383834 8.82367,-0.2782319 7.90594,-1.748546 -0.36682,-0.5876861 -4.50338,-1.0656037 -6.65164,-0.5705164 -2.5707,0.5924362 -3.85153,2.3609872 -6.40715,3.9936059 z"
       style="fill:#000000;stroke:#000000;stroke-width:0.02209776px;stroke-linecap:butt;stroke-linejoin:miter;stroke-opacity:1" />
    <path
       onclick=";
InkWeb.transmitAtt({from:this, to:['path3798-0-16-5-0-4-2-7-5-5'], att:'fill'})"
       inkscape:export-ydpi="63"
       inkscape:export-xdpi="63"
       inkscape:export-filename="/var/www/images/cestki1080.png"
       sodipodi:nodetypes="sssssssaazzazsasszzsszs"
       inkscape:connector-curvature="0"
       id="path2994"
       d="m 240.43751,23.051697 c 0.41792,-1.613458 2.42252,-2.265766 2.15971,0 -0.10513,0.906935 -1.41797,2.133458 -0.64331,2.708607 0.93295,0.692682 2.26681,-0.586281 3.49229,-0.09504 2.13441,0.855574 2.64893,2.28629 -0.18379,2.280932 -1.44398,-0.003 -3.17544,-1.139785 -3.81395,-0.190074 -0.34889,0.518901 -0.75552,2.129351 -0.27573,2.328449 1.69637,0.703941 3.92973,-1.061974 5.05466,0.237597 0.47092,0.544049 0.4631,1.802547 -0.13782,2.18589 -0.73608,0.469535 -1.34903,-0.868308 -2.38945,-1.045427 -1.0405,-0.177117 -2.64524,-0.324894 -3.26258,0.427677 -0.61734,0.752569 -0.32929,1.800148 0.092,2.518526 0.36717,0.626242 2.05616,0.117883 1.84542,1.088687 -0.21077,0.970815 -2.07832,0.815091 -2.85635,0.241854 -1.00451,-0.740102 0.0418,-2.906946 -0.919,-3.70651 -1.01504,-0.844541 -2.53186,-0.09152 -3.90592,-0.142557 -1.23951,-0.04603 -1.68694,-1.044371 0.18384,-1.995815 1.06121,-0.539718 3.47995,0.695304 4.18157,0.04753 0.70161,-0.647786 0.39605,-1.281962 0.50545,-2.138373 0.1094,-0.856414 -2.35842,-0.270584 -3.35445,-0.190078 -1.0404,0.08409 -3.25127,-1.586481 0.22977,-2.138372 1.09272,-0.173244 2.49719,0.836397 3.3085,0.237597 0.8113,-0.598801 0.68927,-2.661086 0.68927,-2.661086 z"
       style="fill:#000000;stroke:#000000;stroke-width:0.02312958px;stroke-linecap:butt;stroke-linejoin:miter;stroke-opacity:1" />
    <path
       onclick=";
InkWeb.transmitAtt({from:this, to:['path3798-0-16-5-0-4-2-7-5-5'], att:'fill'})"
       inkscape:export-ydpi="63"
       inkscape:export-xdpi="63"
       inkscape:export-filename="/var/www/images/cestki1080.png"
       sodipodi:nodetypes="ssssssss"
       inkscape:connector-curvature="0"
       id="path2996"
       d="m 230.05251,36.832319 c 7.06824,-2.872549 -3.89612,-2.307242 -6.617,0.380155 -1.23942,1.224135 -2.68055,3.527755 -2.11378,4.84698 0.9685,2.254307 0.717,1.994898 4.87086,4.656893 4.15383,2.662005 23.07651,1.099795 24.03257,0.950396 3.85003,-0.601651 8.13309,-2.085557 1.884,-2.280933 0,0 -13.17273,-0.411837 -19.75909,-0.617756 -7.16044,-0.223866 -10.62608,-4.551028 -2.29756,-7.935735 z"
       style="fill:#000000;stroke:#000000;stroke-width:0.02312958px;stroke-linecap:butt;stroke-linejoin:miter;stroke-opacity:1" />
    <path
       onclick=";
InkWeb.transmitAtt({from:this, to:['path3798-0-16-5-0-4-2-7-5-5'], att:'fill'})"
       inkscape:export-ydpi="63"
       inkscape:export-xdpi="63"
       inkscape:export-filename="/var/www/images/cestki1080.png"
       transform="matrix(0.02274477,0,0,0.02352088,250.9604,10.559199)"
       d="m -36.365494,282.62595 a 56.568542,107.07617 0 1 1 -113.137086,0 56.568542,107.07617 0 1 1 113.137086,0 z"
       sodipodi:ry="107.07617"
       sodipodi:rx="56.568542"
       sodipodi:cy="282.62595"
       sodipodi:cx="-92.934036"
       id="path2998"
       style="fill:#800000;stroke:#ffffff;stroke-width:1;stroke-miterlimit:4;stroke-opacity:1;stroke-dasharray:none"
       sodipodi:type="arc" />
    <path
       onclick=";
InkWeb.transmitAtt({from:this, to:['path3798-0-16-5-0-4-2-7-5-5'], att:'fill'})"
       inkscape:export-ydpi="63"
       inkscape:export-xdpi="63"
       inkscape:export-filename="/var/www/images/cestki1080.png"
       d="m -36.365494,282.62595 a 56.568542,107.07617 0 1 1 -113.137086,0 56.568542,107.07617 0 1 1 113.137086,0 z"
       sodipodi:ry="107.07617"
       sodipodi:rx="56.568542"
       sodipodi:cy="282.62595"
       sodipodi:cx="-92.934036"
       id="path2998-3"
       style="fill:#800000;stroke:#ffffff;stroke-width:1;stroke-miterlimit:4;stroke-opacity:1;stroke-dasharray:none"
       sodipodi:type="arc"
       transform="matrix(0.02274477,0,0,0.02352088,231.5689,10.226566)" />
    <path
       onclick=";
InkWeb.transmitAtt({from:this, to:['path3798-0-16-5-0-4-2-7-5-5'], att:'fill'})"
       inkscape:export-ydpi="63.971859"
       inkscape:export-xdpi="63.971859"
       inkscape:export-filename="/var/www/images/cestki1080.png"
       sodipodi:nodetypes="ccc"
       inkscape:connector-curvature="0"
       id="path3798-0-16-5-0-4-2-7-5"
       d="m 57.591748,32.318914 c 5.190542,0 5.8257,-1.494252 0,-1.494252 -0.0033,0.456831 -0.01018,0.986481 0,1.494252 z"
       style="fill:#ffffff;fill-opacity:1;stroke:#ffffff;stroke-width:0.24542493;stroke-linecap:butt;stroke-linejoin:miter;stroke-miterlimit:4;stroke-opacity:1;stroke-dasharray:none" />
    <path
       inkscape:export-ydpi="63.971859"
       inkscape:export-xdpi="63.971859"
       inkscape:export-filename="/var/www/images/cestki1080.png"
       sodipodi:nodetypes="ccc"
       inkscape:connector-curvature="0"
       id="path3798-0-16-5-0-4-2-7-5-5"
       d="m 55.221608,30.744283 c -5.19054,0 -5.825698,1.494251 0,1.494251 0.0033,-0.45683 0.01019,-0.98648 0,-1.494251 z"
       style="fill:#ffffff;fill-opacity:1;stroke:#ffffff;stroke-width:0.24542493;stroke-linecap:butt;stroke-linejoin:miter;stroke-miterlimit:4;stroke-opacity:1;stroke-dasharray:none" />
  </g>
</svg>
